<?xml version="1.0" standalone="no"?><!DOCTYPE svg PUBLIC "-//W3C//DTD SVG 1.1//EN" "http://www.w3.org/Graphics/SVG/1.1/DTD/svg11.dtd"><svg t="1595648734129" class="icon" viewBox="0 0 1024 1024" version="1.1" xmlns="http://www.w3.org/2000/svg" p-id="2681" width="48" height="48" xmlns:xlink="http://www.w3.org/1999/xlink"><defs><style type="text/css"></style></defs><path d="M768 620.8c19.2-6.4 38.4-12.8 64-12.8 89.6 0 160 70.4 160 160s-70.4 160-160 160c-64 0-121.6-38.4-147.2-96H339.2c-25.6 57.6-83.2 96-147.2 96C102.4 928 32 857.6 32 768S102.4 608 192 608c19.2 0 44.8 6.4 64 12.8l147.2-249.6c-32-25.6-51.2-70.4-51.2-115.2 0-89.6 70.4-160 160-160s160 70.4 160 160c0 44.8-19.2 89.6-51.2 115.2L768 620.8z m-51.2 38.4L563.2 409.6c-12.8 0-32 6.4-51.2 6.4-19.2 0-38.4-6.4-51.2-6.4l-147.2 249.6c25.6 25.6 44.8 70.4 44.8 108.8h320c-6.4-44.8 12.8-83.2 38.4-108.8zM512 352c51.2 0 96-44.8 96-96S563.2 160 512 160 416 204.8 416 256 460.8 352 512 352z m-320 512c51.2 0 96-44.8 96-96s-44.8-96-96-96-96 44.8-96 96 44.8 96 96 96z m640 0c51.2 0 96-44.8 96-96s-44.8-96-96-96-96 44.8-96 96 44.8 96 96 96z" p-id="2682" fill="#1890ff"></path></svg>